<?xml version="1.0" encoding="UTF-8" standalone="no"?>
<svg width="24px" height="17px" viewBox="0 0 24 17" version="1.1" xmlns="http://www.w3.org/2000/svg" xmlns:xlink="http://www.w3.org/1999/xlink" xmlns:sketch="http://www.bohemiancoding.com/sketch/ns">
    <!-- Generator: Sketch 3.4.2 (15855) - http://www.bohemiancoding.com/sketch -->
    <title>burger</title>
    <desc>Created with Sketch.</desc>
    <defs></defs>
    <g id="Page-1" stroke="none" stroke-width="1" fill="none" fill-rule="evenodd" sketch:type="MSPage">
        <g id="burger" sketch:type="MSLayerGroup" fill="#000000">
            <g id="Shape-+-Shape-+-Shape" sketch:type="MSShapeGroup">
                <path d="M0.48,1 L23.52,1 L24,1 L24,0 L23.52,0 L0.48,0 L0,0 L0,1 L0.48,1 L0.48,1 Z" id="Shape"></path>
                <path d="M0.48,9 L23.52,9 L24,9 L24,8 L23.52,8 L0.48,8 L0,8 L0,9 L0.48,9 L0.48,9 Z" id="Shape"></path>
                <path d="M0.48,17 L23.52,17 L24,17 L24,16 L23.52,16 L0.48,16 L0,16 L0,17 L0.48,17 L0.48,17 Z" id="Shape"></path>
            </g>
        </g>
    </g>
</svg>